<svg xmlns="http://www.w3.org/2000/svg" width="17.234" height="17.234" viewBox="0 0 17.234 17.234">
  <path id="_005-linkedin" data-name="005-linkedin" d="M8.617,0a8.617,8.617,0,1,0,8.617,8.617A8.618,8.618,0,0,0,8.617,0Zm-2.5,13.026h-2.1V6.713h2.1ZM5.064,5.85H5.05a1.094,1.094,0,1,1,.028-2.182A1.094,1.094,0,1,1,5.064,5.85Zm8.616,7.176h-2.1V9.649c0-.849-.3-1.428-1.063-1.428a1.149,1.149,0,0,0-1.077.767,1.437,1.437,0,0,0-.069.512v3.526h-2.1s.027-5.721,0-6.314h2.1v.894a2.083,2.083,0,0,1,1.891-1.042c1.381,0,2.416.9,2.416,2.842Zm0,0" fill="#003383"/>
</svg>
