<svg id="_002-facebook" data-name="002-facebook" xmlns="http://www.w3.org/2000/svg" width="17.234" height="17.234" viewBox="0 0 17.234 17.234">
  <path id="Caminho_2905" data-name="Caminho 2905" d="M291.072,508.668l-.216.032Zm0,0" transform="translate(-279.88 -491.546)" fill="#003383"/>
  <path id="Caminho_2906" data-name="Caminho 2906" d="M299.443,507.793l-.1.018Zm0,0" transform="translate(-288.079 -490.701)" fill="#003383"/>
  <path id="Caminho_2907" data-name="Caminho 2907" d="M277.863,510.34q-.126.014-.253.025Q277.737,510.354,277.863,510.34Zm0,0" transform="translate(-267.08 -493.162)" fill="#003383"/>
  <path id="Caminho_2908" data-name="Caminho 2908" d="M286.567,509.738l-.122.015Zm0,0" transform="translate(-275.618 -492.581)" fill="#003383"/>
  <path id="Caminho_2909" data-name="Caminho 2909" d="M306.755,506.41l-.091.019Zm0,0" transform="translate(-295.157 -489.365)" fill="#003383"/>
  <path id="Caminho_2910" data-name="Caminho 2910" d="M324.558,502.113l-.073.02Zm0,0" transform="translate(-312.377 -485.212)" fill="#003383"/>
  <path id="Caminho_2911" data-name="Caminho 2911" d="M319.139,503.543l-.08.021Zm0,0" transform="translate(-307.134 -486.594)" fill="#003383"/>
  <path id="Caminho_2912" data-name="Caminho 2912" d="M312.151,505.254l-.085.019Zm0,0" transform="translate(-300.377 -488.247)" fill="#003383"/>
  <path id="Caminho_2913" data-name="Caminho 2913" d="M273.617,511.09l-.136.01Zm0,0" transform="translate(-263.09 -493.887)" fill="#003383"/>
  <path id="Caminho_2914" data-name="Caminho 2914" d="M17.234,8.617a8.617,8.617,0,1,0-8.617,8.617l.151,0V10.524H6.917V8.366H8.768V6.779a2.592,2.592,0,0,1,2.767-2.843,15.239,15.239,0,0,1,1.66.085V5.944H12.062c-.894,0-1.067.425-1.067,1.048V8.366h2.137l-.278,2.157H11V16.9A8.621,8.621,0,0,0,17.234,8.617Zm0,0" transform="translate(0)" fill="#003383"/>
  <path id="Caminho_2915" data-name="Caminho 2915" d="M265.161,511.43c-.09.006-.18.01-.27.013C264.981,511.44,265.071,511.435,265.161,511.43Zm0,0" transform="translate(-254.789 -494.215)" fill="#003383"/>
  <path id="Caminho_2916" data-name="Caminho 2916" d="M260.647,511.836l-.143,0Zm0,0" transform="translate(-250.55 -494.608)" fill="#003383"/>
</svg>
