<svg id="_004-youtube" data-name="004-youtube" xmlns="http://www.w3.org/2000/svg" width="17.234" height="17.234" viewBox="0 0 17.234 17.234">
  <path id="Caminho_2919" data-name="Caminho 2919" d="M224.113,211.268l2.8-1.614-2.8-1.614Zm0,0" transform="translate(-216.57 -201.037)" fill="#003383"/>
  <path id="Caminho_2920" data-name="Caminho 2920" d="M8.617,0a8.617,8.617,0,1,0,8.617,8.617A8.618,8.618,0,0,0,8.617,0ZM14,8.626a14.222,14.222,0,0,1-.222,2.59,1.349,1.349,0,0,1-.949.949,32.751,32.751,0,0,1-4.213.222A31.579,31.579,0,0,1,4.4,12.156a1.349,1.349,0,0,1-.949-.949,14.159,14.159,0,0,1-.222-2.59,14.212,14.212,0,0,1,.222-2.59A1.377,1.377,0,0,1,4.4,5.069a32.751,32.751,0,0,1,4.213-.222,31.511,31.511,0,0,1,4.213.231,1.349,1.349,0,0,1,.949.949A13.5,13.5,0,0,1,14,8.626Zm0,0" fill="#003383"/>
</svg>
