<svg id="_001-instagram" data-name="001-instagram" xmlns="http://www.w3.org/2000/svg" width="17.234" height="17.234" viewBox="0 0 17.234 17.234">
  <path id="Caminho_2902" data-name="Caminho 2902" d="M210.3,208.649A1.649,1.649,0,1,1,208.649,207,1.649,1.649,0,0,1,210.3,208.649Zm0,0" transform="translate(-200.033 -200.033)" fill="#003383"/>
  <path id="Caminho_2903" data-name="Caminho 2903" d="M143.4,136.627a1.639,1.639,0,0,0-.939-.939,2.738,2.738,0,0,0-.919-.17c-.522-.024-.678-.029-2-.029s-1.478.005-2,.029a2.74,2.74,0,0,0-.919.17,1.639,1.639,0,0,0-.939.939,2.738,2.738,0,0,0-.17.919c-.024.522-.029.678-.029,2s.005,1.478.029,2a2.737,2.737,0,0,0,.17.919,1.639,1.639,0,0,0,.939.939,2.735,2.735,0,0,0,.919.17c.522.024.678.029,2,.029s1.478-.005,2-.029a2.735,2.735,0,0,0,.919-.17,1.639,1.639,0,0,0,.939-.939,2.74,2.74,0,0,0,.17-.919c.024-.522.029-.678.029-2s0-1.478-.029-2A2.734,2.734,0,0,0,143.4,136.627Zm-3.857,5.459a2.541,2.541,0,1,1,2.541-2.541A2.541,2.541,0,0,1,139.541,142.085Zm2.641-4.588a.594.594,0,1,1,.594-.594A.594.594,0,0,1,142.182,137.5Zm0,0" transform="translate(-130.924 -130.928)" fill="#003383"/>
  <path id="Caminho_2904" data-name="Caminho 2904" d="M8.617,0a8.617,8.617,0,1,0,8.617,8.617A8.618,8.618,0,0,0,8.617,0Zm4.918,10.657a3.63,3.63,0,0,1-.23,1.2A2.53,2.53,0,0,1,11.858,13.3a3.633,3.633,0,0,1-1.2.23c-.528.024-.7.03-2.04.03s-1.512-.006-2.04-.03a3.633,3.633,0,0,1-1.2-.23,2.53,2.53,0,0,1-1.447-1.447,3.629,3.629,0,0,1-.23-1.2c-.024-.528-.03-.7-.03-2.04s.006-1.512.03-2.04a3.631,3.631,0,0,1,.23-1.2A2.532,2.532,0,0,1,5.376,3.929a3.634,3.634,0,0,1,1.2-.23c.528-.024.7-.03,2.04-.03s1.512.006,2.04.03a3.634,3.634,0,0,1,1.2.23A2.531,2.531,0,0,1,13.3,5.376a3.63,3.63,0,0,1,.23,1.2c.024.528.03.7.03,2.04S13.559,10.129,13.535,10.657Zm0,0" fill="#003383"/>
</svg>
