<svg xmlns="http://www.w3.org/2000/svg" width="17.234" height="17.234" viewBox="0 0 17.234 17.234">
  <path id="_006-twitter" data-name="006-twitter" d="M8.617,0a8.617,8.617,0,1,0,8.617,8.617A8.618,8.618,0,0,0,8.617,0Zm3.934,6.718q.006.127.006.256A5.589,5.589,0,0,1,6.93,12.6h0A5.6,5.6,0,0,1,3.9,11.713a4.023,4.023,0,0,0,.472.027,3.968,3.968,0,0,0,2.456-.847A1.98,1.98,0,0,1,4.978,9.52a1.971,1.971,0,0,0,.893-.034A1.978,1.978,0,0,1,4.285,7.547c0-.009,0-.017,0-.025a1.964,1.964,0,0,0,.9.247,1.979,1.979,0,0,1-.612-2.64A5.615,5.615,0,0,0,8.645,7.2a1.979,1.979,0,0,1,3.37-1.8,3.967,3.967,0,0,0,1.256-.48,1.986,1.986,0,0,1-.87,1.094,3.945,3.945,0,0,0,1.136-.311A4.019,4.019,0,0,1,12.551,6.718Zm0,0" fill="#003383"/>
</svg>
