<?xml version="1.0" encoding="utf-8"?>
<!-- Generator: Adobe Illustrator 16.0.0, SVG Export Plug-In . SVG Version: 6.00 Build 0)  -->
<!DOCTYPE svg PUBLIC "-//W3C//DTD SVG 1.1//EN" "http://www.w3.org/Graphics/SVG/1.1/DTD/svg11.dtd">
<svg version="1.1" id="_004-youtube" xmlns="http://www.w3.org/2000/svg" xmlns:xlink="http://www.w3.org/1999/xlink" x="0px"
	 y="0px" width="17.234px" height="17.234px" viewBox="0 0 17.234 17.234" enable-background="new 0 0 17.234 17.234"
	 xml:space="preserve">
<circle fill="#003383" cx="8.617" cy="8.617" r="8.5"/>
<g>
	<path fill="#FFFFFF" d="M12.716,11.717c-2.345-1.544-5.292-1.919-8.761-1.109c-0.696,0.162-0.462,1.219,0.246,1.06
		c5.581-1.298,7.653,1.049,8.213,1.049C12.953,12.716,13.166,12.015,12.716,11.717z"/>
	<path fill="#FFFFFF" d="M3.707,8.945c3.122-0.738,6.664-0.309,9.246,1.119c0.632,0.348,1.156-0.606,0.527-0.953
		C10.671,7.558,6.829,7.09,3.458,7.886C2.758,8.05,3.005,9.108,3.707,8.945L3.707,8.945z"/>
	<path fill="#FFFFFF" d="M3.296,6.113c3.287-1.005,7.896-0.455,10.498,1.256c0.598,0.393,1.2-0.514,0.598-0.909
		C11.504,4.56,6.598,3.965,2.977,5.072C2.285,5.282,2.611,6.323,3.296,6.113L3.296,6.113z"/>
</g>
</svg>
